<?xml version="1.0" standalone="no"?>
<!DOCTYPE svg PUBLIC "-//W3C//DTD SVG 20010904//EN"
 "http://www.w3.org/TR/2001/REC-SVG-20010904/DTD/svg10.dtd">
<svg version="1.0" xmlns="http://www.w3.org/2000/svg"
 width="50.000000pt" height="50.000000pt" viewBox="0 0 50.000000 50.000000"
 preserveAspectRatio="xMidYMid meet">

<g transform="translate(0.000000,50.000000) scale(0.100000,-0.100000)"
fill="#000000" stroke="none">
<path d="M185 466 c-62 -28 -105 -92 -105 -156 0 -25 -4 -30 -25 -30 -30 0
-42 -23 -27 -53 6 -12 14 -38 18 -57 9 -51 28 -83 69 -119 35 -30 38 -31 135
-31 97 0 100 1 135 31 41 36 60 68 69 119 4 19 12 45 18 57 15 30 3 53 -27 53
-21 0 -25 5 -25 30 0 117 -130 203 -235 156z m135 -26 c46 -23 80 -81 80 -133
0 -32 -3 -35 -37 -41 -49 -8 -177 -8 -225 0 -36 6 -38 9 -38 43 1 50 30 99 76
127 48 29 92 30 144 4z m-70 -195 c58 0 129 3 158 7 29 4 52 3 52 -2 0 -16
-73 -25 -210 -25 -137 0 -210 9 -210 25 0 5 23 6 53 2 28 -4 99 -7 157 -7z
m-150 -57 c0 -27 -34 -19 -38 9 -3 17 1 20 17 16 12 -3 21 -14 21 -25z m336
-3 c-3 -8 -12 -15 -21 -15 -21 0 -19 38 3 42 19 4 26 -6 18 -27z m-282 19 c9
-3 16 -15 16 -26 0 -14 -5 -18 -16 -14 -9 3 -20 6 -25 6 -5 0 -9 9 -9 20 0 21
8 24 34 14z m226 -14 c0 -11 -4 -20 -9 -20 -5 0 -16 -3 -25 -6 -11 -4 -16 0
-16 14 0 18 11 26 43 31 4 0 7 -8 7 -19z m-140 -10 c0 -15 -7 -20 -25 -20 -18
0 -25 5 -25 20 0 15 7 20 25 20 18 0 25 -5 25 -20z m70 0 c0 -15 -7 -20 -25
-20 -18 0 -25 5 -25 20 0 15 7 20 25 20 18 0 25 -5 25 -20z m-200 -34 c0 -2 3
-11 6 -20 9 -24 -23 -20 -36 4 -9 17 -8 20 10 20 11 0 20 -2 20 -4z m70 -27
c0 -25 -26 -24 -40 0 -14 27 -13 29 15 23 16 -3 25 -11 25 -23z m180 2 c-14
-26 -40 -27 -40 -2 0 13 8 21 23 23 29 5 31 3 17 -21z m60 9 c-9 -17 -40 -29
-40 -16 0 18 15 36 31 36 17 0 18 -3 9 -20z m-180 -10 c0 -13 -7 -20 -19 -20
-10 0 -21 9 -24 20 -4 16 0 20 19 20 17 0 24 -6 24 -20z m63 0 c-3 -11 -14
-20 -24 -20 -12 0 -19 7 -19 20 0 14 7 20 24 20 19 0 23 -4 19 -20z m-152 -56
c21 -24 22 -26 3 -16 -25 13 -50 42 -37 42 5 0 20 -12 34 -26z m229 10 c-8 -8
-23 -20 -34 -26 -19 -10 -18 -8 3 16 26 27 53 37 31 10z m-172 -14 c7 -11 8
-20 4 -20 -5 0 -17 9 -27 20 -14 15 -15 20 -4 20 8 0 20 -9 27 -20z m32 4 c0
-8 -4 -12 -10 -9 -5 3 -10 10 -10 16 0 5 5 9 10 9 6 0 10 -7 10 -16z m40 7 c0
-6 -4 -13 -10 -16 -5 -3 -10 1 -10 9 0 9 5 16 10 16 6 0 10 -4 10 -9z m35 -11
c-10 -11 -22 -20 -27 -20 -4 0 -3 9 4 20 7 11 19 20 27 20 11 0 10 -5 -4 -20z"/>
</g>
</svg>
